<svg width="437" height="158" viewBox="0 0 437 158" fill="none" xmlns="http://www.w3.org/2000/svg">
<g style="mix-blend-mode:screen">
<path d="M197.357 106.281H176.542V52.5312H197.145C202.71 52.5312 207.517 53.6073 211.568 55.7594C215.636 57.894 218.771 60.9734 220.972 64.9976C223.191 69.0044 224.301 73.8072 224.301 79.406C224.301 85.005 223.2 89.8166 220.998 93.8408C218.798 97.8475 215.681 100.927 211.647 103.079C207.615 105.214 202.851 106.281 197.357 106.281ZM191.228 93.8933H196.829C199.505 93.8933 201.786 93.4646 203.671 92.6073C205.572 91.75 207.017 90.2716 208.002 88.1719C209.007 86.0723 209.509 83.1504 209.509 79.406C209.509 75.6618 208.997 72.7399 207.976 70.6403C206.972 68.5406 205.493 67.0622 203.538 66.2049C201.601 65.3476 199.223 64.9189 196.406 64.9189H191.228V93.8933ZM231.096 106.281V52.5312H270.085V64.289H245.783V73.5273H268.078V85.2849H245.783V94.5232H269.98V106.281H231.096ZM306.532 69.328C306.391 67.5783 305.73 66.2137 304.55 65.2338C303.388 64.2539 301.618 63.7642 299.241 63.7642C297.727 63.7642 296.486 63.9478 295.517 64.3152C294.566 64.6652 293.86 65.1463 293.403 65.7587C292.945 66.371 292.707 67.071 292.69 67.8582C292.655 68.5057 292.769 69.0918 293.033 69.6167C293.315 70.1241 293.755 70.5878 294.355 71.0077C294.953 71.4102 295.719 71.7775 296.653 72.11C297.586 72.4424 298.695 72.7399 299.98 73.0024L304.419 73.9471C307.413 74.577 309.974 75.4082 312.105 76.4404C314.236 77.4728 315.979 78.6887 317.335 80.0884C318.691 81.4708 319.686 83.0279 320.32 84.76C320.972 86.4922 321.307 88.3819 321.324 90.4289C321.307 93.9633 320.418 96.9553 318.656 99.4048C316.895 101.854 314.377 103.718 311.101 104.995C307.843 106.272 303.926 106.911 299.346 106.911C294.645 106.911 290.541 106.22 287.037 104.838C283.55 103.455 280.838 101.329 278.901 98.4599C276.981 95.5729 276.013 91.8812 275.995 87.3846H289.943C290.031 89.0292 290.445 90.4115 291.184 91.5312C291.923 92.651 292.963 93.4997 294.301 94.0771C295.657 94.6545 297.268 94.9432 299.136 94.9432C300.702 94.9432 302.015 94.7507 303.072 94.3658C304.127 93.9809 304.928 93.4472 305.475 92.7648C306.021 92.0824 306.303 91.3038 306.32 90.4289C306.303 89.6066 306.03 88.8892 305.502 88.2769C304.99 87.647 304.146 87.0872 302.965 86.5972C301.786 86.0899 300.193 85.6174 298.184 85.1799L292.796 84.0251C288.006 82.9929 284.227 81.2695 281.463 78.855C278.717 76.4228 277.351 73.1072 277.368 68.9082C277.351 65.4963 278.267 62.5131 280.116 59.9586C281.984 57.3865 284.562 55.3832 287.855 53.9485C291.167 52.5137 294.962 51.7963 299.241 51.7963C303.608 51.7963 307.386 52.5224 310.572 53.9747C313.76 55.427 316.218 57.474 317.943 60.116C319.686 62.7406 320.566 65.8112 320.585 69.328H306.532ZM362.044 70.2728C361.815 69.3456 361.454 68.5318 360.961 67.8321C360.468 67.1147 359.851 66.511 359.112 66.0212C358.39 65.5137 357.544 65.1376 356.575 64.8926C355.625 64.6302 354.576 64.4989 353.432 64.4989C350.967 64.4989 348.862 65.0851 347.119 66.2574C345.393 67.4296 344.072 69.118 343.156 71.3226C342.259 73.5273 341.81 76.1867 341.81 79.3012C341.81 82.4505 342.241 85.145 343.104 87.3846C343.967 89.6241 345.252 91.3387 346.961 92.5286C348.669 93.7184 350.79 94.3133 353.327 94.3133C355.563 94.3133 357.421 93.9895 358.9 93.3422C360.397 92.6948 361.516 91.7762 362.255 90.5864C362.994 89.3967 363.365 87.997 363.365 86.3872L365.9 86.6497H353.538V76.2567H377.523V83.7103C377.523 88.6093 376.475 92.7998 374.38 96.2817C372.302 99.746 369.432 102.405 365.768 104.26C362.123 106.097 357.941 107.016 353.22 107.016C347.956 107.016 343.333 105.905 339.353 103.683C335.372 101.461 332.265 98.2938 330.027 94.182C327.81 90.0703 326.7 85.1799 326.7 79.511C326.7 75.067 327.377 71.1301 328.733 67.7009C330.108 64.2715 332.009 61.3758 334.439 59.0137C336.869 56.6342 339.679 54.8408 342.867 53.6335C346.053 52.4088 349.47 51.7963 353.115 51.7963C356.32 51.7963 359.297 52.2513 362.044 53.1611C364.809 54.0534 367.248 55.3307 369.36 56.9928C371.491 58.6375 373.208 60.5885 374.512 62.8456C375.815 65.1026 376.607 67.5783 376.889 70.2728H362.044ZM431.179 52.5312V106.281H418.923L399.375 78.0414H399.057V106.281H384.371V52.5312H396.84L416.07 80.6658H416.491V52.5312H431.179Z" fill="url(#paint0_linear_11_180)"/>
</g>
<g style="mix-blend-mode:screen">
<path d="M79.4243 141.452C98.4017 133.642 107.414 112.025 99.5529 93.1702C91.6922 74.3152 69.9356 65.3614 50.9581 73.1714C31.9807 80.9814 22.9688 102.598 30.8295 121.453C38.6902 140.308 60.4468 149.262 79.4243 141.452Z" fill="#EC4899"/>
</g>
<g style="mix-blend-mode:screen">
<path d="M129.535 120.829C148.512 113.019 157.524 91.4026 149.664 72.5476C141.803 53.6925 120.046 44.7388 101.069 52.5488C82.0913 60.3588 73.0794 81.9751 80.9401 100.83C88.8008 119.685 110.557 128.639 129.535 120.829Z" fill="#F87171"/>
</g>
<g style="mix-blend-mode:screen">
<path d="M90.615 91.8488C109.592 84.0388 118.604 62.4225 110.744 43.5675C102.883 24.7125 81.1263 15.7587 62.1489 23.5687C43.1714 31.3787 34.1595 52.995 42.0202 71.8501C49.881 90.7051 71.6376 99.6588 90.615 91.8488Z" fill="#4F46E5"/>
</g>
<defs>
<linearGradient id="paint0_linear_11_180" x1="159.898" y1="35.4545" x2="434.719" y2="99.6417" gradientUnits="userSpaceOnUse">
<stop stop-color="#FFBEFB"/>
<stop offset="1" stop-color="#F87171"/>
</linearGradient>
</defs>
</svg>
