<svg width="541" height="542" viewBox="0 0 541 542" fill="none" xmlns="http://www.w3.org/2000/svg">
<g clip-path="url(#clip0_12_285)">
<path d="M540.584 271.385C540.678 335.231 518.143 397.036 476.998 445.781C475.504 447.559 473.982 449.309 472.432 451.05C454.189 471.611 432.939 489.28 409.406 503.451C404.009 506.698 398.493 509.759 392.858 512.632C392.289 512.922 391.71 513.212 391.14 513.493C390.458 513.839 389.767 514.176 389.076 514.513C374.819 521.507 359.968 527.213 344.7 531.565C343.112 532.014 341.522 532.451 339.928 532.876C319.843 538.201 299.211 541.182 278.443 541.757C277.36 541.785 276.296 541.804 275.268 541.823C274.904 541.832 274.549 541.841 274.194 541.841C273.027 541.851 271.869 541.86 270.702 541.86C248.816 541.876 227.01 539.227 205.762 533.971C203.633 533.446 201.513 532.894 199.403 532.314C188.286 529.272 177.377 525.512 166.746 521.055C161.143 518.715 155.639 516.192 150.235 513.484C149.012 512.866 147.789 512.248 146.584 511.612C146.07 511.359 145.566 511.088 145.062 510.826C116.261 495.591 90.4321 475.282 68.8133 450.872C67.3191 449.197 65.853 447.493 64.4055 445.781C40.5856 417.477 22.8175 384.573 12.2017 349.107C1.58582 313.641 -1.65169 276.369 2.68965 239.598C7.03099 202.828 18.8587 167.342 37.4403 135.339C56.0219 103.335 80.9617 75.496 110.715 53.5449C112.247 52.4125 113.787 51.2894 115.347 50.1944C115.655 49.9791 115.963 49.7639 116.271 49.5486C143.674 30.3121 174.43 16.3922 206.948 8.50941C208.797 8.05081 210.646 7.62031 212.514 7.21787C247.736 -0.50359 284.137 -1.143 319.607 5.33671C321.466 5.68299 323.324 6.03863 325.173 6.42235C357.401 13.0471 388.138 25.5561 415.85 43.3249C416.466 43.718 417.082 44.1111 417.699 44.5229C418.941 45.3277 420.183 46.1513 421.406 46.9843C458.116 71.7185 488.19 105.126 508.974 144.26C529.757 183.394 540.613 227.053 540.584 271.385Z" fill="#F2F2F2"/>
<path d="M202.531 411.311L116.271 418.986L115.347 419.07V50.1944C115.655 49.9792 115.963 49.7639 116.271 49.5486C134.249 36.9465 153.696 26.5935 174.179 18.7201L178.587 79.6472L178.989 85.2251L183.35 145.647L184.694 164.234L202.372 409.159L202.531 411.311Z" fill="#CCCCCC"/>
<path d="M415.85 43.3249C416.466 43.718 417.082 44.1111 417.699 44.5229V419.07L415.85 418.902L330.524 411.311L330.683 409.159L348.361 164.234L349.705 145.647L354.066 85.2252L354.468 79.6472L359.091 15.7533C379.025 22.6784 398.076 31.9327 415.85 43.3249Z" fill="#CCCCCC"/>
<path d="M415.85 43.3249V424.18C415.85 431.489 410.826 437.432 404.644 437.432H127.478C122.36 437.432 118.018 433.352 116.701 427.783C116.414 426.604 116.269 425.394 116.271 424.18V49.5486C115.963 49.7639 115.655 49.9792 115.347 50.1944C113.787 51.2894 112.247 52.4125 110.715 53.5449V424.18C110.632 429.732 112.701 435.1 116.486 439.154C118.471 441.239 120.982 442.746 123.752 443.516C124.966 443.847 126.219 444.014 127.478 444.012H404.644C405.905 444.013 407.161 443.846 408.379 443.516C415.831 441.504 421.406 433.605 421.406 424.18V46.9842C420.183 46.1513 418.941 45.3277 417.699 44.5228C417.082 44.111 416.466 43.718 415.85 43.3249Z" fill="#CCCCCC"/>
<path d="M418.63 79.6509H113.493V85.228H418.63V79.6509Z" fill="#CCCCCC"/>
<path d="M206.948 8.50943C208.797 8.05084 210.646 7.62033 212.514 7.2179V158.656H206.948V8.50943Z" fill="#CCCCCC"/>
<path d="M319.607 5.33673C321.466 5.68301 323.324 6.03866 325.173 6.42238V158.656H319.607V5.33673Z" fill="#CCCCCC"/>
<path d="M453.409 409.159H87.9852C81.3426 409.159 74.9721 411.803 70.2751 416.511C65.5781 421.218 62.9394 427.603 62.9394 434.26C62.9394 440.917 65.5781 447.301 70.2751 452.009C74.9721 456.716 81.3426 459.361 87.9852 459.361H453.409C456.966 459.361 460.482 458.601 463.722 457.131C466.962 455.661 469.852 453.514 472.198 450.835C473.26 449.623 474.205 448.313 475.018 446.922C475.648 445.856 476.195 444.742 476.653 443.591C478.178 439.783 478.748 435.658 478.313 431.578C477.878 427.497 476.45 423.586 474.156 420.188C471.862 416.789 468.771 414.006 465.153 412.083C461.536 410.161 457.504 409.156 453.409 409.159Z" fill="#CCCCCC"/>
<path d="M418.63 145.646H115.348V164.236H418.63V145.646Z" fill="#CCCCCC"/>
<path d="M264.207 140.069H269.772C271.111 140.069 272.438 140.333 273.676 140.847C274.914 141.361 276.038 142.114 276.986 143.064C277.933 144.013 278.685 145.14 279.197 146.381C279.71 147.621 279.974 148.951 279.974 150.293H254.005C254.005 147.582 255.08 144.981 256.993 143.064C258.906 141.146 261.501 140.069 264.207 140.069Z" fill="#CCCCCC"/>
<path d="M476.998 445.781C468.886 455.414 460.111 464.468 450.738 472.875H90.6653C81.2928 464.468 72.5181 455.414 64.4055 445.781H476.998Z" fill="#3F3D56"/>
<path d="M300.847 351.938H240.221C239.894 351.934 239.569 351.985 239.259 352.088C238.601 352.292 238.026 352.702 237.617 353.257C237.209 353.813 236.989 354.486 236.99 355.176V451.162H304.087V355.176C304.087 354.75 304.002 354.329 303.839 353.935C303.676 353.542 303.437 353.185 303.136 352.884C302.835 352.583 302.478 352.345 302.085 352.183C301.692 352.02 301.271 351.937 300.847 351.938ZM277.902 399.294C277.904 400.851 277.392 402.365 276.445 403.6C275.542 404.798 274.286 405.681 272.855 406.126C271.424 406.571 269.889 406.554 268.468 406.079C267.047 405.603 265.81 404.693 264.933 403.476C264.055 402.259 263.581 400.796 263.577 399.294V388.157C263.594 386.265 264.356 384.456 265.698 383.124C267.039 381.792 268.851 381.045 270.739 381.045C272.627 381.045 274.439 381.792 275.781 383.124C277.122 384.456 277.884 386.265 277.902 388.157V399.294Z" fill="#2F2E41"/>
<path d="M236.784 448.092V457.348C236.784 457.828 236.974 458.289 237.312 458.629C237.649 458.969 238.108 459.162 238.587 459.164H302.49C302.968 459.16 303.426 458.967 303.763 458.627C304.101 458.287 304.291 457.828 304.292 457.348V448.092H236.784Z" fill="#3F3D56"/>
<path d="M401.235 202.147H142.092C139.866 202.15 137.731 203.037 136.156 204.614C134.58 206.191 133.693 208.329 133.688 210.561V385.818C133.689 388.051 134.576 390.192 136.151 391.772C137.727 393.351 139.864 394.239 142.092 394.241H401.235C403.464 394.239 405.6 393.351 407.176 391.772C408.752 390.192 409.638 388.051 409.64 385.818V210.561C409.634 208.329 408.747 206.191 407.172 204.614C405.596 203.037 403.462 202.15 401.235 202.147Z" fill="#3F3D56"/>
<path d="M399.069 208.23H144.25C143.057 208.233 141.915 208.709 141.073 209.555C140.231 210.401 139.758 211.547 139.758 212.742V383.656C139.76 384.849 140.234 385.993 141.076 386.836C141.918 387.68 143.059 388.155 144.25 388.157H399.069C400.259 388.155 401.401 387.68 402.242 386.836C403.084 385.993 403.558 384.849 403.56 383.656V212.742C403.56 211.547 403.087 210.401 402.245 209.555C401.403 208.709 400.261 208.233 399.069 208.23Z" fill="#6C63FF"/>
<path d="M352.171 459.014L349.817 447.812C349.72 447.355 349.51 446.93 349.206 446.575C348.903 446.22 348.516 445.947 348.08 445.781C347.765 445.657 347.429 445.593 347.091 445.594H200.187C199.848 445.593 199.512 445.657 199.197 445.781C198.762 445.947 198.374 446.22 198.071 446.575C197.768 446.93 197.558 447.355 197.46 447.812L195.107 459.014C195.022 459.421 195.028 459.842 195.126 460.245C195.223 460.649 195.409 461.026 195.671 461.349C195.932 461.672 196.261 461.932 196.636 462.111C197.01 462.29 197.419 462.383 197.834 462.384H349.435C349.851 462.386 350.262 462.293 350.637 462.113C351.012 461.933 351.342 461.671 351.601 461.345C351.863 461.023 352.05 460.647 352.148 460.244C352.247 459.841 352.254 459.421 352.171 459.014Z" fill="#2F2E41"/>
<path d="M205.477 447.611H201.72C201.468 447.611 201.264 447.816 201.264 448.068V449.962C201.264 450.214 201.468 450.419 201.72 450.419H205.477C205.729 450.419 205.933 450.214 205.933 449.962V448.068C205.933 447.816 205.729 447.611 205.477 447.611Z" fill="#3F3D56"/>
<path d="M214.816 447.611H211.058C210.806 447.611 210.602 447.816 210.602 448.068V449.962C210.602 450.214 210.806 450.419 211.058 450.419H214.816C215.067 450.419 215.271 450.214 215.271 449.962V448.068C215.271 447.816 215.067 447.611 214.816 447.611Z" fill="#3F3D56"/>
<path d="M224.154 447.611H220.397C220.145 447.611 219.941 447.816 219.941 448.068V449.962C219.941 450.214 220.145 450.419 220.397 450.419H224.154C224.406 450.419 224.61 450.214 224.61 449.962V448.068C224.61 447.816 224.406 447.611 224.154 447.611Z" fill="#3F3D56"/>
<path d="M233.492 447.611H229.735C229.483 447.611 229.279 447.816 229.279 448.068V449.962C229.279 450.214 229.483 450.419 229.735 450.419H233.492C233.744 450.419 233.948 450.214 233.948 449.962V448.068C233.948 447.816 233.744 447.611 233.492 447.611Z" fill="#3F3D56"/>
<path d="M242.831 447.611H239.074C238.822 447.611 238.618 447.816 238.618 448.068V449.962C238.618 450.214 238.822 450.419 239.074 450.419H242.831C243.083 450.419 243.287 450.214 243.287 449.962V448.068C243.287 447.816 243.083 447.611 242.831 447.611Z" fill="#3F3D56"/>
<path d="M252.169 447.611H248.412C248.16 447.611 247.956 447.816 247.956 448.068V449.962C247.956 450.214 248.16 450.419 248.412 450.419H252.169C252.421 450.419 252.625 450.214 252.625 449.962V448.068C252.625 447.816 252.421 447.611 252.169 447.611Z" fill="#3F3D56"/>
<path d="M261.508 447.611H257.75C257.499 447.611 257.295 447.816 257.295 448.068V449.962C257.295 450.214 257.499 450.419 257.75 450.419H261.508C261.76 450.419 261.964 450.214 261.964 449.962V448.068C261.964 447.816 261.76 447.611 261.508 447.611Z" fill="#3F3D56"/>
<path d="M270.846 447.611H267.089C266.837 447.611 266.633 447.816 266.633 448.068V449.962C266.633 450.214 266.837 450.419 267.089 450.419H270.846C271.098 450.419 271.302 450.214 271.302 449.962V448.068C271.302 447.816 271.098 447.611 270.846 447.611Z" fill="#3F3D56"/>
<path d="M280.185 447.611H276.427C276.176 447.611 275.972 447.816 275.972 448.068V449.962C275.972 450.214 276.176 450.419 276.427 450.419H280.185C280.437 450.419 280.641 450.214 280.641 449.962V448.068C280.641 447.816 280.437 447.611 280.185 447.611Z" fill="#3F3D56"/>
<path d="M289.523 447.611H285.766C285.514 447.611 285.31 447.816 285.31 448.068V449.962C285.31 450.214 285.514 450.419 285.766 450.419H289.523C289.775 450.419 289.979 450.214 289.979 449.962V448.068C289.979 447.816 289.775 447.611 289.523 447.611Z" fill="#3F3D56"/>
<path d="M298.862 447.611H295.104C294.853 447.611 294.648 447.816 294.648 448.068V449.962C294.648 450.214 294.853 450.419 295.104 450.419H298.862C299.114 450.419 299.318 450.214 299.318 449.962V448.068C299.318 447.816 299.114 447.611 298.862 447.611Z" fill="#3F3D56"/>
<path d="M308.2 447.611H304.443C304.191 447.611 303.987 447.816 303.987 448.068V449.962C303.987 450.214 304.191 450.419 304.443 450.419H308.2C308.452 450.419 308.656 450.214 308.656 449.962V448.068C308.656 447.816 308.452 447.611 308.2 447.611Z" fill="#3F3D56"/>
<path d="M317.539 447.611H313.781C313.53 447.611 313.325 447.816 313.325 448.068V449.962C313.325 450.214 313.53 450.419 313.781 450.419H317.539C317.791 450.419 317.995 450.214 317.995 449.962V448.068C317.995 447.816 317.791 447.611 317.539 447.611Z" fill="#3F3D56"/>
<path d="M326.877 447.611H323.12C322.868 447.611 322.664 447.816 322.664 448.068V449.962C322.664 450.214 322.868 450.419 323.12 450.419H326.877C327.129 450.419 327.333 450.214 327.333 449.962V448.068C327.333 447.816 327.129 447.611 326.877 447.611Z" fill="#3F3D56"/>
<path d="M336.216 447.611H332.458C332.207 447.611 332.002 447.816 332.002 448.068V449.962C332.002 450.214 332.207 450.419 332.458 450.419H336.216C336.468 450.419 336.672 450.214 336.672 449.962V448.068C336.672 447.816 336.468 447.611 336.216 447.611Z" fill="#3F3D56"/>
<path d="M345.554 447.611H341.797C341.545 447.611 341.341 447.816 341.341 448.068V449.962C341.341 450.214 341.545 450.419 341.797 450.419H345.554C345.806 450.419 346.01 450.214 346.01 449.962V448.068C346.01 447.816 345.806 447.611 345.554 447.611Z" fill="#3F3D56"/>
<path d="M205.367 452.291H201.609C201.357 452.291 201.153 452.495 201.153 452.747V454.641C201.153 454.894 201.357 455.098 201.609 455.098H205.367C205.619 455.098 205.823 454.894 205.823 454.641V452.747C205.823 452.495 205.619 452.291 205.367 452.291Z" fill="#3F3D56"/>
<path d="M214.705 452.291H210.948C210.696 452.291 210.492 452.495 210.492 452.747V454.641C210.492 454.894 210.696 455.098 210.948 455.098H214.705C214.957 455.098 215.161 454.894 215.161 454.641V452.747C215.161 452.495 214.957 452.291 214.705 452.291Z" fill="#3F3D56"/>
<path d="M224.044 452.291H220.286C220.034 452.291 219.83 452.495 219.83 452.747V454.641C219.83 454.894 220.034 455.098 220.286 455.098H224.044C224.295 455.098 224.5 454.894 224.5 454.641V452.747C224.5 452.495 224.295 452.291 224.044 452.291Z" fill="#3F3D56"/>
<path d="M233.382 452.291H229.625C229.373 452.291 229.169 452.495 229.169 452.747V454.641C229.169 454.894 229.373 455.098 229.625 455.098H233.382C233.634 455.098 233.838 454.894 233.838 454.641V452.747C233.838 452.495 233.634 452.291 233.382 452.291Z" fill="#3F3D56"/>
<path d="M242.721 452.291H238.963C238.711 452.291 238.507 452.495 238.507 452.747V454.641C238.507 454.894 238.711 455.098 238.963 455.098H242.721C242.972 455.098 243.177 454.894 243.177 454.641V452.747C243.177 452.495 242.972 452.291 242.721 452.291Z" fill="#3F3D56"/>
<path d="M252.059 452.291H248.302C248.05 452.291 247.846 452.495 247.846 452.747V454.641C247.846 454.894 248.05 455.098 248.302 455.098H252.059C252.311 455.098 252.515 454.894 252.515 454.641V452.747C252.515 452.495 252.311 452.291 252.059 452.291Z" fill="#3F3D56"/>
<path d="M261.398 452.291H257.64C257.388 452.291 257.184 452.495 257.184 452.747V454.641C257.184 454.894 257.388 455.098 257.64 455.098H261.398C261.649 455.098 261.853 454.894 261.853 454.641V452.747C261.853 452.495 261.649 452.291 261.398 452.291Z" fill="#3F3D56"/>
<path d="M270.736 452.291H266.979C266.727 452.291 266.523 452.495 266.523 452.747V454.641C266.523 454.894 266.727 455.098 266.979 455.098H270.736C270.988 455.098 271.192 454.894 271.192 454.641V452.747C271.192 452.495 270.988 452.291 270.736 452.291Z" fill="#3F3D56"/>
<path d="M280.075 452.291H276.317C276.065 452.291 275.861 452.495 275.861 452.747V454.641C275.861 454.894 276.065 455.098 276.317 455.098H280.075C280.326 455.098 280.53 454.894 280.53 454.641V452.747C280.53 452.495 280.326 452.291 280.075 452.291Z" fill="#3F3D56"/>
<path d="M289.413 452.291H285.656C285.404 452.291 285.2 452.495 285.2 452.747V454.641C285.2 454.894 285.404 455.098 285.656 455.098H289.413C289.665 455.098 289.869 454.894 289.869 454.641V452.747C289.869 452.495 289.665 452.291 289.413 452.291Z" fill="#3F3D56"/>
<path d="M298.751 452.291H294.994C294.742 452.291 294.538 452.495 294.538 452.747V454.641C294.538 454.894 294.742 455.098 294.994 455.098H298.751C299.003 455.098 299.207 454.894 299.207 454.641V452.747C299.207 452.495 299.003 452.291 298.751 452.291Z" fill="#3F3D56"/>
<path d="M308.09 452.291H304.333C304.081 452.291 303.877 452.495 303.877 452.747V454.641C303.877 454.894 304.081 455.098 304.333 455.098H308.09C308.342 455.098 308.546 454.894 308.546 454.641V452.747C308.546 452.495 308.342 452.291 308.09 452.291Z" fill="#3F3D56"/>
<path d="M317.428 452.291H313.671C313.419 452.291 313.215 452.495 313.215 452.747V454.641C313.215 454.894 313.419 455.098 313.671 455.098H317.428C317.68 455.098 317.884 454.894 317.884 454.641V452.747C317.884 452.495 317.68 452.291 317.428 452.291Z" fill="#3F3D56"/>
<path d="M326.767 452.291H323.009C322.758 452.291 322.554 452.495 322.554 452.747V454.641C322.554 454.894 322.758 455.098 323.009 455.098H326.767C327.019 455.098 327.223 454.894 327.223 454.641V452.747C327.223 452.495 327.019 452.291 326.767 452.291Z" fill="#3F3D56"/>
<path d="M336.105 452.291H332.348C332.096 452.291 331.892 452.495 331.892 452.747V454.641C331.892 454.894 332.096 455.098 332.348 455.098H336.105C336.357 455.098 336.561 454.894 336.561 454.641V452.747C336.561 452.495 336.357 452.291 336.105 452.291Z" fill="#3F3D56"/>
<path d="M345.444 452.291H341.686C341.435 452.291 341.231 452.495 341.231 452.747V454.641C341.231 454.894 341.435 455.098 341.686 455.098H345.444C345.696 455.098 345.9 454.894 345.9 454.641V452.747C345.9 452.495 345.696 452.291 345.444 452.291Z" fill="#3F3D56"/>
<path d="M282.876 457.906H246.434C246.182 457.906 245.978 458.111 245.978 458.363V460.257C245.978 460.509 246.182 460.714 246.434 460.714H282.876C283.128 460.714 283.332 460.509 283.332 460.257V458.363C283.332 458.111 283.128 457.906 282.876 457.906Z" fill="#3F3D56"/>
<path d="M386.264 231.775H147.831C147.583 231.769 147.347 231.667 147.173 231.489C147 231.311 146.903 231.073 146.903 230.824C146.903 230.576 147 230.337 147.173 230.16C147.347 229.982 147.583 229.88 147.831 229.874H386.264C386.512 229.88 386.747 229.982 386.921 230.16C387.094 230.337 387.191 230.576 387.191 230.824C387.191 231.073 387.094 231.311 386.921 231.489C386.747 231.667 386.512 231.769 386.264 231.775Z" fill="#3F3D56"/>
<path d="M164.061 225.022C167.13 225.022 169.618 222.473 169.618 219.329C169.618 216.185 167.13 213.636 164.061 213.636C160.992 213.636 158.504 216.185 158.504 219.329C158.504 222.473 160.992 225.022 164.061 225.022Z" fill="#3F3D56"/>
<path d="M183.257 225.022C186.326 225.022 188.814 222.473 188.814 219.329C188.814 216.185 186.326 213.636 183.257 213.636C180.188 213.636 177.7 216.185 177.7 219.329C177.7 222.473 180.188 225.022 183.257 225.022Z" fill="#3F3D56"/>
<path d="M202.453 225.022C205.522 225.022 208.01 222.473 208.01 219.329C208.01 216.185 205.522 213.636 202.453 213.636C199.385 213.636 196.897 216.185 196.897 219.329C196.897 222.473 199.385 225.022 202.453 225.022Z" fill="#3F3D56"/>
<path d="M374.704 215.044H361.07C360.801 215.05 360.544 215.162 360.356 215.355C360.168 215.548 360.062 215.808 360.062 216.078C360.062 216.348 360.168 216.608 360.356 216.801C360.544 216.994 360.801 217.106 361.07 217.112H374.704C374.976 217.108 375.234 216.998 375.425 216.804C375.615 216.611 375.722 216.35 375.722 216.078C375.722 215.806 375.615 215.545 375.425 215.352C375.234 215.158 374.976 215.048 374.704 215.044Z" fill="#3F3D56"/>
<path d="M374.704 218.928H361.07C360.801 218.934 360.544 219.045 360.355 219.239C360.167 219.432 360.061 219.692 360.061 219.962C360.061 220.232 360.167 220.492 360.355 220.685C360.544 220.879 360.801 220.99 361.07 220.996H374.704C374.976 220.993 375.235 220.883 375.426 220.689C375.617 220.495 375.724 220.234 375.724 219.962C375.724 219.69 375.617 219.429 375.426 219.235C375.235 219.042 374.976 218.931 374.704 218.928Z" fill="#3F3D56"/>
<path d="M374.704 222.812H361.07C360.801 222.818 360.544 222.93 360.356 223.123C360.168 223.316 360.062 223.576 360.062 223.846C360.062 224.116 360.168 224.376 360.356 224.569C360.544 224.762 360.801 224.874 361.07 224.88H374.704C374.976 224.876 375.234 224.766 375.425 224.572C375.615 224.379 375.722 224.118 375.722 223.846C375.722 223.574 375.615 223.313 375.425 223.12C375.234 222.926 374.976 222.816 374.704 222.812Z" fill="#3F3D56"/>
<path d="M168.39 253.859H163.491C162.005 253.859 160.801 255.065 160.801 256.554C160.801 258.043 162.005 259.249 163.491 259.249H168.39C169.875 259.249 171.079 258.043 171.079 256.554C171.079 255.065 169.875 253.859 168.39 253.859Z" fill="#E6E6E6"/>
<path d="M224.421 253.859H219.521C218.036 253.859 216.832 255.065 216.832 256.554C216.832 258.043 218.036 259.249 219.521 259.249H224.421C225.906 259.249 227.11 258.043 227.11 256.554C227.11 255.065 225.906 253.859 224.421 253.859Z" fill="#E6E6E6"/>
<path d="M240.296 253.859H235.397C233.912 253.859 232.707 255.065 232.707 256.554C232.707 258.043 233.912 259.249 235.397 259.249H240.296C241.781 259.249 242.985 258.043 242.985 256.554C242.985 255.065 241.781 253.859 240.296 253.859Z" fill="#E6E6E6"/>
<path d="M209.18 253.409H178.731C177.246 253.409 176.042 254.616 176.042 256.105C176.042 257.593 177.246 258.8 178.731 258.8H209.18C210.665 258.8 211.869 257.593 211.869 256.105C211.869 254.616 210.665 253.409 209.18 253.409Z" fill="#E6E6E6"/>
<path d="M283.888 253.409H253.439C251.954 253.409 250.75 254.616 250.75 256.105C250.75 257.593 251.954 258.8 253.439 258.8H283.888C285.373 258.8 286.577 257.593 286.577 256.105C286.577 254.616 285.373 253.409 283.888 253.409Z" fill="#E6E6E6"/>
<path d="M183.331 266.025H178.432C176.947 266.025 175.743 267.232 175.743 268.721C175.743 270.209 176.947 271.416 178.432 271.416H183.331C184.817 271.416 186.021 270.209 186.021 268.721C186.021 267.232 184.817 266.025 183.331 266.025Z" fill="#E6E6E6"/>
<path d="M239.362 266.025H234.463C232.978 266.025 231.774 267.232 231.774 268.721C231.774 270.209 232.978 271.416 234.463 271.416H239.362C240.847 271.416 242.052 270.209 242.052 268.721C242.052 267.232 240.847 266.025 239.362 266.025Z" fill="#E6E6E6"/>
<path d="M255.238 266.025H250.338C248.853 266.025 247.649 267.232 247.649 268.721C247.649 270.209 248.853 271.416 250.338 271.416H255.238C256.723 271.416 257.927 270.209 257.927 268.721C257.927 267.232 256.723 266.025 255.238 266.025Z" fill="#E6E6E6"/>
<path d="M224.122 265.576H193.673C192.187 265.576 190.983 266.783 190.983 268.271C190.983 269.76 192.187 270.967 193.673 270.967H224.122C225.607 270.967 226.811 269.76 226.811 268.271C226.811 266.783 225.607 265.576 224.122 265.576Z" fill="#E6E6E6"/>
<path d="M298.829 265.576H268.38C266.895 265.576 265.691 266.783 265.691 268.271C265.691 269.76 266.895 270.967 268.38 270.967H298.829C300.315 270.967 301.519 269.76 301.519 268.271C301.519 266.783 300.315 265.576 298.829 265.576Z" fill="#E6E6E6"/>
<path d="M198.273 278.192H193.374C191.888 278.192 190.684 279.399 190.684 280.887C190.684 282.376 191.888 283.583 193.374 283.583H198.273C199.758 283.583 200.962 282.376 200.962 280.887C200.962 279.399 199.758 278.192 198.273 278.192Z" fill="#E6E6E6"/>
<path d="M254.304 278.192H249.405C247.919 278.192 246.715 279.399 246.715 280.887C246.715 282.376 247.919 283.583 249.405 283.583H254.304C255.789 283.583 256.993 282.376 256.993 280.887C256.993 279.399 255.789 278.192 254.304 278.192Z" fill="#E6E6E6"/>
<path d="M270.179 278.192H265.28C263.795 278.192 262.591 279.399 262.591 280.887C262.591 282.376 263.795 283.583 265.28 283.583H270.179C271.664 283.583 272.869 282.376 272.869 280.887C272.869 279.399 271.664 278.192 270.179 278.192Z" fill="#E6E6E6"/>
<path d="M239.063 277.743H208.614C207.129 277.743 205.925 278.949 205.925 280.438C205.925 281.927 207.129 283.133 208.614 283.133H239.063C240.548 283.133 241.753 281.927 241.753 280.438C241.753 278.949 240.548 277.743 239.063 277.743Z" fill="#E6E6E6"/>
<path d="M313.771 277.743H283.322C281.837 277.743 280.633 278.949 280.633 280.438C280.633 281.927 281.837 283.133 283.322 283.133H313.771C315.256 283.133 316.46 281.927 316.46 280.438C316.46 278.949 315.256 277.743 313.771 277.743Z" fill="#E6E6E6"/>
<path d="M213.214 290.359H208.315C206.83 290.359 205.626 291.566 205.626 293.054C205.626 294.543 206.83 295.749 208.315 295.749H213.214C214.7 295.749 215.904 294.543 215.904 293.054C215.904 291.566 214.7 290.359 213.214 290.359Z" fill="#E6E6E6"/>
<path d="M269.245 290.359H264.346C262.861 290.359 261.657 291.566 261.657 293.054C261.657 294.543 262.861 295.749 264.346 295.749H269.245C270.731 295.749 271.935 294.543 271.935 293.054C271.935 291.566 270.731 290.359 269.245 290.359Z" fill="#E6E6E6"/>
<path d="M285.121 290.359H280.222C278.736 290.359 277.532 291.566 277.532 293.054C277.532 294.543 278.736 295.749 280.222 295.749H285.121C286.606 295.749 287.81 294.543 287.81 293.054C287.81 291.566 286.606 290.359 285.121 290.359Z" fill="#E6E6E6"/>
<path d="M254.005 289.909H223.556C222.071 289.909 220.866 291.116 220.866 292.605C220.866 294.093 222.071 295.3 223.556 295.3H254.005C255.49 295.3 256.694 294.093 256.694 292.605C256.694 291.116 255.49 289.909 254.005 289.909Z" fill="#E6E6E6"/>
<path d="M224.421 338.739H219.521C218.036 338.739 216.832 339.946 216.832 341.434C216.832 342.923 218.036 344.13 219.521 344.13H224.421C225.906 344.13 227.11 342.923 227.11 341.434C227.11 339.946 225.906 338.739 224.421 338.739Z" fill="#E6E6E6"/>
<path d="M240.296 338.739H235.397C233.912 338.739 232.707 339.946 232.707 341.434C232.707 342.923 233.912 344.13 235.397 344.13H240.296C241.781 344.13 242.985 342.923 242.985 341.434C242.985 339.946 241.781 338.739 240.296 338.739Z" fill="#E6E6E6"/>
<path d="M283.888 339.188H253.439C251.954 339.188 250.75 340.395 250.75 341.884C250.75 343.372 251.954 344.579 253.439 344.579H283.888C285.373 344.579 286.577 343.372 286.577 341.884C286.577 340.395 285.373 339.188 283.888 339.188Z" fill="#E6E6E6"/>
<path d="M168.39 338.739H163.491C162.005 338.739 160.801 339.946 160.801 341.434C160.801 342.923 162.005 344.13 163.491 344.13H168.39C169.875 344.13 171.079 342.923 171.079 341.434C171.079 339.946 169.875 338.739 168.39 338.739Z" fill="#E6E6E6"/>
<path d="M209.18 339.188H178.731C177.246 339.188 176.042 340.395 176.042 341.884C176.042 343.372 177.246 344.579 178.731 344.579H209.18C210.665 344.579 211.869 343.372 211.869 341.884C211.869 340.395 210.665 339.188 209.18 339.188Z" fill="#E6E6E6"/>
<path d="M183.331 326.572H178.432C176.947 326.572 175.743 327.779 175.743 329.267C175.743 330.756 176.947 331.963 178.432 331.963H183.331C184.817 331.963 186.021 330.756 186.021 329.267C186.021 327.779 184.817 326.572 183.331 326.572Z" fill="#E6E6E6"/>
<path d="M239.362 326.572H234.463C232.978 326.572 231.774 327.779 231.774 329.267C231.774 330.756 232.978 331.963 234.463 331.963H239.362C240.847 331.963 242.052 330.756 242.052 329.267C242.052 327.779 240.847 326.572 239.362 326.572Z" fill="#E6E6E6"/>
<path d="M255.238 326.572H250.338C248.853 326.572 247.649 327.779 247.649 329.267C247.649 330.756 248.853 331.963 250.338 331.963H255.238C256.723 331.963 257.927 330.756 257.927 329.267C257.927 327.779 256.723 326.572 255.238 326.572Z" fill="#E6E6E6"/>
<path d="M224.122 327.021H193.673C192.187 327.021 190.983 328.228 190.983 329.717C190.983 331.205 192.187 332.412 193.673 332.412H224.122C225.607 332.412 226.811 331.205 226.811 329.717C226.811 328.228 225.607 327.021 224.122 327.021Z" fill="#E6E6E6"/>
<path d="M198.273 314.405H193.374C191.888 314.405 190.684 315.612 190.684 317.101C190.684 318.589 191.888 319.796 193.374 319.796H198.273C199.758 319.796 200.962 318.589 200.962 317.101C200.962 315.612 199.758 314.405 198.273 314.405Z" fill="#E6E6E6"/>
<path d="M254.304 314.405H249.405C247.919 314.405 246.715 315.612 246.715 317.101C246.715 318.589 247.919 319.796 249.405 319.796H254.304C255.789 319.796 256.993 318.589 256.993 317.101C256.993 315.612 255.789 314.405 254.304 314.405Z" fill="#E6E6E6"/>
<path d="M270.179 314.405H265.28C263.795 314.405 262.591 315.612 262.591 317.101C262.591 318.589 263.795 319.796 265.28 319.796H270.179C271.664 319.796 272.869 318.589 272.869 317.101C272.869 315.612 271.664 314.405 270.179 314.405Z" fill="#E6E6E6"/>
<path d="M239.063 314.855H208.614C207.129 314.855 205.925 316.062 205.925 317.55C205.925 319.039 207.129 320.245 208.614 320.245H239.063C240.548 320.245 241.753 319.039 241.753 317.55C241.753 316.062 240.548 314.855 239.063 314.855Z" fill="#E6E6E6"/>
<path d="M213.214 302.239H208.315C206.83 302.239 205.626 303.445 205.626 304.934C205.626 306.423 206.83 307.629 208.315 307.629H213.214C214.7 307.629 215.904 306.423 215.904 304.934C215.904 303.445 214.7 302.239 213.214 302.239Z" fill="#E6E6E6"/>
<path d="M269.245 302.239H264.346C262.861 302.239 261.657 303.445 261.657 304.934C261.657 306.423 262.861 307.629 264.346 307.629H269.245C270.731 307.629 271.935 306.423 271.935 304.934C271.935 303.445 270.731 302.239 269.245 302.239Z" fill="#E6E6E6"/>
<path d="M285.121 302.239H280.222C278.736 302.239 277.532 303.445 277.532 304.934C277.532 306.423 278.736 307.629 280.222 307.629H285.121C286.606 307.629 287.81 306.423 287.81 304.934C287.81 303.445 286.606 302.239 285.121 302.239Z" fill="#E6E6E6"/>
<path d="M254.005 302.688H223.556C222.071 302.688 220.866 303.895 220.866 305.383C220.866 306.872 222.071 308.079 223.556 308.079H254.005C255.49 308.079 256.694 306.872 256.694 305.383C256.694 303.895 255.49 302.688 254.005 302.688Z" fill="#E6E6E6"/>
<path d="M389.123 514.504C388.553 514.794 387.974 515.084 387.405 515.365C372.65 522.758 360.846 526.961 344.7 531.565C343.336 516.31 342.02 489.497 340.74 472.875C340.404 468.56 340.068 464.939 339.741 462.384C339.659 461.025 339.382 459.686 338.919 458.406L338.975 462.384L339.116 472.875L339.928 532.876C319.843 538.201 299.211 541.182 278.443 541.757C277.36 541.785 276.296 541.804 275.268 541.823C274.904 541.832 274.549 541.841 274.194 541.841C273.027 541.851 271.869 541.86 270.702 541.86C248.816 541.876 227.01 539.227 205.762 533.971C206.22 518.875 206.677 492.36 207.116 472.875C207.209 469.066 207.294 465.519 207.387 462.384C207.564 455.683 207.751 450.853 207.929 449.234C207.771 449.521 207.649 449.826 207.564 450.142C206.7 454.178 206.11 458.268 205.799 462.384C205.473 465.519 205.146 469.066 204.819 472.875C203.082 493.119 201.27 520.643 199.403 532.314C188.286 529.272 177.377 525.512 166.746 521.055C161.143 518.715 155.639 516.192 150.235 513.484C151.263 506.745 152.337 499.192 153.439 491.359C154.298 485.285 155.185 479.043 156.091 472.875C157.491 463.348 158.93 454.007 160.386 445.781C162.516 433.764 164.701 424.105 166.867 419.669C168.922 415.458 170.976 411.302 172.965 407.325C173.656 405.93 174.347 404.554 175.02 403.216C175.179 402.898 175.337 402.589 175.496 402.28C176.925 399.463 178.307 396.768 179.624 394.241C180.754 392.079 181.828 390.039 182.845 388.157C185.311 383.59 187.403 379.949 188.953 377.647C195.434 367.795 205.082 360.46 216.296 356.861L216.576 356.786L216.772 356.87L235.869 350.993L238.662 350.132L240.539 349.551L247.15 344.507L250.746 341.765L254.117 339.191L260.71 334.165L301.528 336.683L309.475 355.859L327.274 362.383L327.582 362.242L327.853 362.13L328.133 362.205C339.346 365.807 348.993 373.141 355.477 382.991C356.354 384.311 357.419 386.052 358.624 388.157C359.651 389.945 360.771 391.985 361.985 394.241C363.713 397.451 365.599 401.073 367.598 404.994C368.037 405.855 368.485 406.735 368.933 407.624C369.764 409.271 370.608 410.953 371.464 412.669C373.453 416.646 375.508 420.802 377.562 425.022C379.346 428.682 381.148 436.206 382.922 445.781C384.388 453.736 385.845 463.114 387.255 472.875C389.104 485.528 387.134 500.681 388.806 512.323C388.908 513.063 389.02 513.783 389.123 514.504Z" fill="#3F3D56"/>
<path d="M271.276 318.858C297.495 318.858 318.75 297.557 318.75 271.28C318.75 245.004 297.495 223.703 271.276 223.703C245.057 223.703 223.803 245.004 223.803 271.28C223.803 297.557 245.057 318.858 271.276 318.858Z" fill="#A0616A"/>
<path d="M349.565 208.231C348.627 206.035 347.378 203.986 345.858 202.147C338.649 193.322 325.537 189.438 312.081 199.882C309.49 199.302 306.79 199.458 304.283 200.332C303.099 200.761 301.99 201.374 300.996 202.147C298.958 203.74 297.368 205.836 296.383 208.231C295.856 209.495 295.51 210.828 295.355 212.189C292.029 210.457 288.508 209.128 284.868 208.231C275.937 206.004 266.597 206.004 257.665 208.231C254.803 208.956 252.047 210.051 249.466 211.487C245.096 214.014 242.584 217.206 242.135 220.753C235.832 221.109 229.276 224.431 224.392 229.878C223.841 230.486 223.309 231.123 222.814 231.778C218.707 237.164 216.5 243.764 216.539 250.543V251.731H217.725C220.974 251.728 224.193 252.357 227.203 253.584C229.154 254.369 231.001 255.391 232.704 256.626C233.818 257.418 234.87 258.294 235.851 259.246C238.125 261.453 240.052 263.994 241.566 266.78C245.446 273.823 246.791 281.988 245.376 289.907C245.051 291.74 244.577 293.543 243.956 295.297C243.074 297.801 241.912 300.197 240.492 302.438C240.436 302.522 240.389 302.607 240.333 302.691C239.707 303.692 239.11 304.712 238.549 305.742C238.129 306.509 237.737 307.296 237.373 308.082C236.308 310.27 235.409 312.535 234.683 314.858C233.384 318.966 232.618 323.225 232.405 327.53C232.339 328.672 232.321 329.813 232.358 330.955C232.414 333.898 232.735 336.83 233.32 339.715C233.404 340.108 233.488 340.492 233.572 340.885L234.254 343.871L235.869 350.993L236.99 355.897L238.026 360.445L239.558 358.246C240.081 357.497 241.398 355.195 243.163 351.938C244.33 349.814 245.684 347.277 247.15 344.507C249.195 340.623 251.437 336.29 253.631 331.966C254.518 330.216 255.396 328.475 256.246 326.772C257.852 323.543 259.365 320.426 260.663 317.656C261.858 315.101 262.876 312.836 263.633 311.02C263.866 312.209 264.062 313.416 264.212 314.633C264.38 315.868 264.501 317.123 264.566 318.377C264.585 318.564 264.594 318.76 264.604 318.948L264.641 319.715L264.651 319.94L265.64 320.071C271.35 320.683 277.105 320.727 282.823 320.202H282.832C290.407 319.63 297.839 317.825 304.834 314.858C308.807 313.13 312.517 310.849 315.853 308.082C317.412 306.788 318.868 305.374 320.205 303.852C320.541 303.468 320.868 303.084 321.186 302.691C323.034 300.415 324.616 297.934 325.902 295.297C326.762 293.557 327.493 291.755 328.087 289.907C331.673 279.022 331.467 265.442 327.47 249.307C328.55 249.099 329.584 248.7 330.524 248.128C333.456 246.359 335.492 242.85 336.127 238.563L337.136 238.835C340.711 237.166 343.896 234.761 346.484 231.778C346.996 231.17 347.476 230.536 347.922 229.878C352.488 223.139 352.526 215.053 349.565 208.231Z" fill="#2F2E41"/>
<path opacity="0.2" d="M193.491 445.739L201.426 415.049L208.433 441.532L193.491 445.739Z" fill="black"/>
<path d="M404.644 425.743C401.805 464.938 404.746 482.197 389.076 514.513C374.819 521.507 359.968 527.213 344.7 531.565C343.112 532.014 341.522 532.451 339.928 532.875C319.843 538.201 299.211 541.182 278.443 541.757C277.36 541.785 276.296 541.804 275.268 541.823C274.904 541.832 274.549 541.841 274.194 541.841C273.027 541.851 271.869 541.86 270.702 541.86C248.816 541.876 227.01 539.227 205.762 533.97C203.633 533.446 201.513 532.894 199.403 532.314C188.286 529.272 177.377 525.511 166.746 521.055C161.143 518.715 155.639 516.191 150.235 513.484C149.012 512.866 147.789 512.248 146.584 511.612C140.393 500.699 136.872 487.428 136.797 471.48C141.084 444.002 395.174 402.046 404.644 425.743Z" fill="#2F2E41"/>
<path opacity="0.2" d="M404.636 432.455C404.781 430.029 404.943 427.522 405.132 424.912C395.663 401.215 141.573 443.172 137.286 470.65C137.298 473.169 137.406 475.614 137.586 478.001C147.967 450.88 389.356 411.003 404.636 432.455Z" fill="black"/>
<path d="M153.126 321.13C153.188 320.281 153.068 319.429 152.774 318.631C152.48 317.833 152.018 317.107 151.421 316.503C150.823 315.899 150.103 315.43 149.31 315.127C148.516 314.825 147.667 314.697 146.82 314.751C146.505 314.763 146.191 314.802 145.882 314.869L108.75 323.275C107.92 323.477 107.142 323.851 106.465 324.372C105.788 324.894 105.227 325.551 104.82 326.303C104.275 326.324 103.734 326.402 103.206 326.538C102.051 326.801 100.958 327.289 99.9911 327.974C99.0237 328.66 98.2006 329.53 97.5688 330.534C96.9369 331.539 96.5086 332.658 96.3084 333.828C96.1082 334.999 96.14 336.197 96.4019 337.355C96.6638 338.513 97.1507 339.608 97.8349 340.578C98.5191 341.547 99.387 342.372 100.389 343.005C102.413 344.284 104.862 344.705 107.195 344.175C108.524 343.866 109.766 343.263 110.832 342.411L123.415 377.92C124.043 379.033 125.014 379.912 126.183 380.426C127.351 380.94 128.654 381.061 129.897 380.771L154.035 375.304C155.269 375.014 156.379 374.34 157.206 373.379C158.033 372.418 158.535 371.219 158.64 369.954L153.126 321.13ZM106.638 341.647C104.971 342.024 103.224 341.723 101.778 340.81C100.332 339.897 99.307 338.448 98.9265 336.778C98.5461 335.109 98.8416 333.357 99.7484 331.905C100.655 330.454 102.099 329.423 103.764 329.037C103.881 329.007 103.998 329.037 104.116 329.007C104.107 330.078 104.38 331.133 104.908 332.064L109.512 340.118C108.711 340.88 107.717 341.409 106.638 341.647Z" fill="#2F2E41"/>
<path d="M146.82 314.751C147.172 319.454 139.136 324.863 128.372 327.008C118.487 329.037 109.63 327.626 107.137 323.922C107.638 323.624 108.182 323.406 108.75 323.275L145.882 314.869C146.19 314.802 146.505 314.763 146.82 314.751Z" fill="#3F3D56"/>
<path d="M121.14 434.143L141.996 423.692L124.616 376.662L120.035 352.945C119.44 349.863 118.049 346.992 116 344.619C113.951 342.245 111.316 340.452 108.359 339.419C105.402 338.386 102.226 338.148 99.1487 338.731C96.0714 339.313 93.2004 340.694 90.8227 342.737C87.2992 345.763 85.0868 350.044 84.6525 354.674C84.2182 359.305 85.596 363.923 88.495 367.555L105.498 388.855L121.14 434.143Z" fill="#A0616A"/>
<path d="M141.996 414.983L114.188 428.917L135.291 495.188C136.807 499.946 139.524 504.232 143.178 507.629C146.832 511.026 151.301 513.419 156.15 514.576C162.128 516.003 168.405 515.484 174.07 513.095C179.735 510.706 184.493 506.571 187.655 501.289L243.616 405.159C247.582 398.535 248.806 390.619 247.027 383.103C245.248 375.587 240.607 369.065 234.095 364.932C230.592 362.709 226.662 361.25 222.56 360.65C218.458 360.05 214.276 360.322 210.286 361.449C206.296 362.576 202.587 364.533 199.401 367.191C196.215 369.85 193.624 373.15 191.795 376.879L157.639 449.82L141.996 414.983Z" fill="#3F3D56"/>
<path d="M133.395 355.093C133.344 355.093 133.292 355.085 133.243 355.068L127.172 352.973C127.099 352.948 127.033 352.905 126.98 352.848C126.928 352.79 126.89 352.721 126.871 352.646C126.852 352.57 126.852 352.492 126.871 352.416C126.89 352.341 126.928 352.271 126.98 352.214L131.496 347.287C131.537 347.242 131.587 347.205 131.643 347.178C131.698 347.152 131.758 347.137 131.82 347.135C131.881 347.132 131.943 347.141 132 347.162C132.058 347.183 132.111 347.216 132.156 347.257C132.202 347.299 132.238 347.349 132.264 347.405C132.29 347.461 132.305 347.521 132.307 347.583C132.31 347.644 132.3 347.706 132.279 347.764C132.257 347.821 132.225 347.874 132.183 347.92L128.15 352.32L133.547 354.183C133.652 354.219 133.74 354.291 133.796 354.386C133.853 354.481 133.874 354.593 133.856 354.703C133.838 354.812 133.781 354.911 133.697 354.983C133.613 355.054 133.506 355.093 133.395 355.093Z" fill="#6C63FF"/>
<path d="M141.717 353.386C141.624 353.386 141.533 353.358 141.456 353.306C141.379 353.254 141.319 353.18 141.284 353.094C141.25 353.007 141.241 352.912 141.261 352.821C141.28 352.73 141.326 352.647 141.393 352.582L145.497 348.605L139.984 346.328C139.927 346.305 139.875 346.271 139.832 346.227C139.788 346.184 139.754 346.133 139.73 346.076C139.706 346.019 139.694 345.958 139.694 345.897C139.694 345.835 139.706 345.774 139.729 345.717C139.753 345.661 139.787 345.609 139.83 345.565C139.874 345.522 139.925 345.487 139.982 345.464C140.038 345.44 140.099 345.428 140.161 345.428C140.222 345.428 140.283 345.44 140.339 345.464L146.512 348.013C146.583 348.042 146.646 348.089 146.695 348.149C146.745 348.21 146.778 348.281 146.792 348.357C146.807 348.434 146.802 348.512 146.779 348.586C146.756 348.66 146.714 348.727 146.658 348.781L142.042 353.254C141.955 353.339 141.839 353.386 141.717 353.386Z" fill="#6C63FF"/>
<path d="M134.67 357.956C134.623 357.956 134.577 357.949 134.532 357.935C134.474 357.917 134.419 357.887 134.372 357.848C134.325 357.809 134.286 357.761 134.257 357.706C134.228 357.652 134.21 357.593 134.205 357.532C134.199 357.47 134.205 357.409 134.223 357.35L138.533 343.311C138.57 343.193 138.652 343.094 138.761 343.037C138.871 342.979 138.998 342.967 139.116 343.003C139.235 343.04 139.333 343.122 139.391 343.231C139.449 343.341 139.462 343.469 139.426 343.587L135.116 357.626C135.087 357.721 135.027 357.805 134.947 357.864C134.867 357.924 134.77 357.956 134.67 357.956Z" fill="#6C63FF"/>
</g>
<defs>
<clipPath id="clip0_12_285">
<rect width="539.764" height="540.95" fill="white" transform="translate(0.819855 0.909912)"/>
</clipPath>
</defs>
</svg>
